<svg width="36" height="36" viewBox="0 0 36 36" fill="none" xmlns="http://www.w3.org/2000/svg">
<path d="M36 18C36 8.05781 27.9422 0 18 0C8.05781 0 0 8.05781 0 18C0 26.4375 5.81484 33.525 13.6547 35.4727V23.4984H9.94219V18H13.6547V15.6305C13.6547 9.50625 16.425 6.66563 22.4438 6.66563C23.5828 6.66563 25.5516 6.89062 26.3602 7.11562V12.0938C25.9383 12.0516 25.2 12.0234 24.2789 12.0234C21.3258 12.0234 20.1867 13.1414 20.1867 16.0453V18H26.0648L25.0523 23.4984H20.1797V35.8664C29.0953 34.7906 36 27.2039 36 18Z" fill="#444242"/>
</svg>
