<svg width="45" height="45" viewBox="0 0 45 45" fill="none" xmlns="http://www.w3.org/2000/svg">
<path d="M7.875 9C6.01172 9 4.5 10.5117 4.5 12.375C4.5 13.4367 4.99922 14.4352 5.85 15.075L20.475 26.0437C21.6773 26.9438 23.3227 26.9438 24.525 26.0437L39.15 15.075C40.0008 14.4352 40.5 13.4367 40.5 12.375C40.5 10.5117 38.9883 9 37.125 9H7.875ZM4.5 18.2812V31.5C4.5 33.982 6.51797 36 9 36H36C38.482 36 40.5 33.982 40.5 31.5V18.2812L26.55 28.7437C24.1523 30.5437 20.8477 30.5437 18.45 28.7437L4.5 18.2812Z" fill="#444242"/>
</svg>
